HIERARCHY
ROOT Pelvis
{
	OFFSET 0.000000 0.000000 0.000000
	CHANNELS 6 Xposition Yposition Zposition Xrotation Yrotation Zrotation
	JOINT LeftUpLeg_virtual
	{
		OFFSET 0.000000 0.000000 0.000000
		CHANNELS 3 Xrotation Yrotation Zrotation
		JOINT LeftUpLeg
		{
			OFFSET 18.735201 -5.666702 -4.541200
			CHANNELS 3 Xrotation Yrotation Zrotation
			JOINT LeftLeg
			{
				OFFSET -0.021200 -31.938179 0.493100
				CHANNELS 3 Xrotation Yrotation Zrotation
				JOINT LeftFoot
				{
					OFFSET 0.021200 -31.938179 -4.336299
					CHANNELS 3 Xrotation Yrotation Zrotation
					JOINT LeftToeBase
					{
						OFFSET 0.943001 -26.722000 15.023500
						CHANNELS 3 Xrotation Yrotation Zrotation
						End Site
						{
							OFFSET 0 0 0
						}
					}
				}
			}
		}
	}
	JOINT RightUpLeg_virtual
	{
		OFFSET 0.000000 0.000000 0.000000
		CHANNELS 3 Xrotation Yrotation Zrotation
		JOINT RightUpLeg
		{
			OFFSET -18.735201 -5.666702 -4.541200
			CHANNELS 3 Xrotation Yrotation Zrotation
			JOINT RightLeg
			{
				OFFSET 0.018946 -31.938133 0.493100
				CHANNELS 3 Xrotation Yrotation Zrotation
				JOINT RightFoot
				{
					OFFSET -0.018946 -31.938126 -4.336299
					CHANNELS 3 Xrotation Yrotation Zrotation
					JOINT RightToeBase
					{
						OFFSET -0.943001 -26.722004 15.023500
						CHANNELS 3 Xrotation Yrotation Zrotation
						End Site
						{
							OFFSET 0 0 0
						}
					}
				}
			}
		}
	}
	JOINT Hips_virtual
	{
		OFFSET 0.000000 0.000000 0.000000
		CHANNELS 3 Xrotation Yrotation Zrotation
		JOINT Hips
		{
			OFFSET -0.000000 -0.000000 -0.000000
			CHANNELS 3 Xrotation Yrotation Zrotation
			JOINT Spine
			{
				OFFSET 0.000000 10.199997 -0.299500
				CHANNELS 3 Xrotation Yrotation Zrotation
				JOINT Spine1
				{
					OFFSET 0.000000 11.900002 -1.516600
					CHANNELS 3 Xrotation Yrotation Zrotation
					JOINT Spine2
					{
						OFFSET 0.000000 13.600006 -2.842500
						CHANNELS 3 Xrotation Yrotation Zrotation
						JOINT Neck_virtual
						{
							OFFSET 0.000000 0.000000 0.000000
							CHANNELS 3 Xrotation Yrotation Zrotation
							JOINT Neck
							{
								OFFSET 0.000000 9.624100 -2.890100
								CHANNELS 3 Xrotation Yrotation Zrotation
								JOINT Head
								{
									OFFSET 0.000000 14.068802 -1.351900
									CHANNELS 3 Xrotation Yrotation Zrotation
									End Site
									{
										OFFSET 0 0 0
									}
								}
							}
						}
						JOINT LeftShoulder_virtual
						{
							OFFSET 0.000000 0.000000 0.000000
							CHANNELS 3 Xrotation Yrotation Zrotation
							JOINT LeftShoulder
							{
								OFFSET 15.263000 10.923401 -0.547700
								CHANNELS 3 Xrotation Yrotation Zrotation
								JOINT LeftArm
								{
									OFFSET 25.438599 -2.830597 -13.032500
									CHANNELS 3 Xrotation Yrotation Zrotation
									JOINT LeftForeArm
									{
										OFFSET 29.960503 0.000000 0.000000
										CHANNELS 3 Xrotation Yrotation Zrotation
										JOINT LeftHand
										{
											OFFSET 27.849251 0.000000 0.000000
											CHANNELS 3 Xrotation Yrotation Zrotation
											End Site
											{
												OFFSET 0 0 0
											}
										}
									}
								}
							}
						}
						JOINT RightShoulder_virtual
						{
							OFFSET 0.000000 0.000000 0.000000
							CHANNELS 3 Xrotation Yrotation Zrotation
							JOINT RightShoulder
							{
								OFFSET -15.263000 10.923401 -0.547700
								CHANNELS 3 Xrotation Yrotation Zrotation
								JOINT RightArm
								{
									OFFSET -25.438599 -2.830597 -13.032500
									CHANNELS 3 Xrotation Yrotation Zrotation
									JOINT RightForeArm
									{
										OFFSET -29.960503 0.000000 0.000000
										CHANNELS 3 Xrotation Yrotation Zrotation
										JOINT RightHand
										{
											OFFSET -27.849251 0.000000 0.000000
											CHANNELS 3 Xrotation Yrotation Zrotation
											End Site
											{
												OFFSET 0 0 0
											}
										}
									}
								}
							}
						}
					}
				}
			}
		}
	}
}
MOTION
Frames: 6
Frame Time: 0.03333333
-6.173428 88.210228 0.600777 0.000000 0.000000 0.000000 0.983755 -42.699669 4.657253 -29.210574 3.814692 14.457989 21.486983 -8.588418 4.338593 8.888523 -2.616010 -26.707525 0.000000 0.000000 0.000000 1.368429 -41.504717 4.172182 -12.124971 -6.830948 -17.153243 31.149245 -10.275374 -9.014290 -17.962580 -9.531450 27.942524 0.000000 0.000000 0.000000 1.296686 -42.052990 4.957909 -0.000948 -0.240559 -0.776612 6.668566 1.066896 1.265364 0.689345 2.134880 -1.831075 0.000000 0.000000 0.000000 -1.220556 1.586154 -1.627965 -2.916440 -1.077286 4.147883 0.000000 0.000000 0.000000 -0.912400 1.651905 -1.653619 -5.785995 -9.205934 -11.879758 -9.539718 -1.889317 -37.201845 34.140557 -38.094216 12.879028 0.000000 0.000000 0.000000 -0.617415 1.986737 -2.026098 -1.600148 13.597705 -19.153223 -62.606108 12.584576 3.646764 -74.790565 37.530179 53.711146 0.000000 0.000000 0.000000 
-5.234255 87.949089 0.575172 0.000000 0.000000 0.000000 1.070067 -44.989561 5.122406 -29.449447 4.911100 14.823370 22.518418 -7.529717 3.772149 7.789500 -2.283798 -25.695208 0.000000 0.000000 0.000000 1.387682 -43.621754 4.595154 -14.375626 -5.922086 -18.191654 32.455577 -8.777236 -9.128795 -17.565303 -9.066332 27.410843 0.000000 0.000000 0.000000 1.192585 -44.179378 5.348863 0.039517 -0.198840 -0.803235 7.028742 1.108336 1.255036 1.316642 2.147014 -1.753061 0.000000 0.000000 0.000000 -0.532542 1.564710 -1.522045 -3.042823 -0.363806 4.040000 0.000000 0.000000 0.000000 -0.211800 1.623952 -1.543841 -5.643735 -9.387658 -10.739757 -9.309685 -1.022497 -37.260786 34.227639 -39.442092 13.425439 0.000000 0.000000 0.000000 -0.123461 2.002121 -1.823526 -2.341098 14.196192 -13.538455 -55.500205 13.343821 3.931269 -76.966253 43.021490 58.095547 0.000000 0.000000 0.000000 
-4.402222 87.614616 0.415337 0.000000 0.000000 0.000000 1.115296 -46.964497 5.591671 -30.021625 5.882811 15.280682 23.814636 -6.533527 3.170682 6.638875 -1.823071 -24.435174 0.000000 0.000000 0.000000 1.360301 -45.531841 5.037998 -16.706031 -4.927177 -19.201846 33.927920 -7.220984 -9.254907 -17.181440 -8.522470 27.119770 0.000000 0.000000 0.000000 1.074539 -46.168025 5.712582 0.069508 -0.148779 -0.892660 7.457934 1.084717 1.214068 1.972163 2.148551 -1.695566 0.000000 0.000000 0.000000 0.146649 1.559286 -1.441560 -3.246746 0.369058 3.897997 0.000000 0.000000 0.000000 0.549954 1.611672 -1.452997 -5.522539 -9.921580 -9.653130 -9.652741 -0.624480 -37.210324 33.544268 -39.848358 13.321022 0.000000 0.000000 0.000000 0.460712 2.038552 -1.661758 -3.099565 14.831915 -7.943777 -48.007918 13.830094 4.749672 -78.236190 48.546324 60.785993 0.000000 0.000000 0.000000 
-3.686749 87.210381 0.153534 0.000000 0.000000 0.000000 1.077234 -48.568594 5.983569 -31.018720 6.660738 15.871053 25.523853 -5.656082 2.511240 5.271433 -1.330486 -23.109346 0.000000 0.000000 0.000000 1.273334 -47.171475 5.424718 -19.144552 -4.049419 -20.183554 35.748746 -5.714720 -9.300150 -16.904226 -7.988284 27.016776 0.000000 0.000000 0.000000 0.989831 -47.956288 6.033467 0.107273 -0.158260 -0.954493 7.905600 0.986861 1.166302 2.618645 2.175532 -1.640773 0.000000 0.000000 0.000000 0.803450 1.590905 -1.381344 -3.493125 1.097566 3.717795 0.000000 0.000000 0.000000 1.319558 1.649542 -1.367486 -5.418801 -10.776281 -8.698959 -10.443756 -0.636115 -37.024973 32.099307 -39.348160 12.583633 0.000000 0.000000 0.000000 1.112079 2.106411 -1.543044 -3.869926 15.472955 -2.660163 -40.638174 13.988211 6.074331 -76.845509 53.799471 60.019816 0.000000 0.000000 0.000000 
-3.076240 86.756416 -0.199570 0.000000 0.000000 0.000000 0.925510 -49.853394 6.215484 -32.392565 7.213751 16.614222 27.713498 -4.922740 1.803397 3.783668 -0.877616 -21.791389 0.000000 0.000000 0.000000 1.106449 -48.593552 5.680974 -21.656431 -3.400662 -21.092162 37.949832 -4.388328 -9.191938 -16.892832 -7.590481 27.004070 0.000000 0.000000 0.000000 0.898330 -49.503985 6.257028 0.168259 -0.248107 -1.010790 8.297228 0.822889 1.116401 3.255185 2.229060 -1.602535 0.000000 0.000000 0.000000 1.427503 1.666961 -1.338861 -3.737299 1.784724 3.499290 0.000000 0.000000 0.000000 2.057100 1.727937 -1.304157 -5.331481 -11.878283 -7.925964 -11.619111 -0.913973 -36.658079 30.013566 -38.114030 11.354175 0.000000 0.000000 0.000000 1.791549 2.204339 -1.487338 -4.617559 16.001629 2.124553 -33.636534 13.910103 7.571861 -71.174683 58.388432 54.244324 0.000000 0.000000 0.000000 
-2.569912 86.281097 -0.529087 0.000000 0.000000 0.000000 0.684751 -50.990361 6.280803 -33.896798 7.506760 17.409128 30.127927 -4.371447 1.101992 2.346589 -0.506550 -20.553858 0.000000 0.000000 0.000000 0.869879 -49.879499 5.779702 -24.105694 -2.923713 -21.909220 40.296453 -3.255043 -9.012579 -17.135336 -7.330320 27.034063 0.000000 0.000000 0.000000 0.815567 -50.818527 6.392497 0.147711 -0.439201 -1.044565 8.610576 0.610470 1.058950 3.864797 2.303032 -1.592921 0.000000 0.000000 0.000000 2.023248 1.770627 -1.326811 -3.945036 2.406455 3.255044 0.000000 0.000000 0.000000 2.728938 1.839634 -1.281655 -5.269875 -13.084678 -7.331931 -13.102622 -1.273276 -36.111176 27.550661 -36.516643 9.887343 0.000000 0.000000 0.000000 2.456020 2.316946 -1.505168 -5.288165 16.303033 6.198342 -27.368237 13.572284 9.087805 -60.870065 61.755340 43.269788 0.000000 0.000000 0.000000 
